<svg t="1612627561977" class="icon" viewBox="0 0 1024 1024" version="1.1" xmlns="http://www.w3.org/2000/svg" p-id="1014" width="200" height="200"><path d="M512 14.41185223C237.18570667 14.41185223 14.41185223 237.18570667 14.41185223 512S237.18570667 1009.58814777 512 1009.58814777 1009.58814777 786.81429333 1009.58814777 512 786.81429333 14.41185223 512 14.41185223z m0 72.81777778c234.59460779 0 424.77036999 190.17576334 424.77036999 424.77036999S746.59460779 936.77036999 512 936.77036999 87.22963001 746.59460779 87.22963001 512 277.40539221 87.22963001 512 87.22963001z" fill="#45494c" p-id="1015"></path><path d="M666.47077888 357.52922112a36.40888889 36.40888889 0 0 1 0 51.48216889L563.48216889 512l102.98860999 102.98860999a36.40888889 36.40888889 0 0 1-51.48216889 51.48216889L512 563.48216889l-102.98860999 102.98860999a36.40888889 36.40888889 0 0 1-51.48216889-51.48216889L460.51783111 512l-102.98860999-102.98860999a36.40888889 36.40888889 0 0 1 51.48216889-51.48216889L512 460.51783111l102.98860999-102.98860999a36.40888889 36.40888889 0 0 1 51.48216889 0z" fill="#45494c" p-id="1016"></path></svg>
