<svg t="1612681339801" class="icon" viewBox="0 0 1024 1024" version="1.1" xmlns="http://www.w3.org/2000/svg" p-id="1490" width="200" height="200"><path d="M632.9 248.6c-15.2 15.3-15.2 40.1 0 55.4l205.9 208-205.9 207.9c-15.2 15.3-15.2 40.1 0 55.4l13.7 13.9c15.2 15.3 39.8 15.3 54.9 0l233.1-235.4 0.2-0.2 13.7-13.9c15.2-15.3 15.2-40.1 0-55.4l-13.7-13.9-0.2-0.2-233.1-235.4c-15.2-15.3-39.8-15.3-54.9 0l-13.7 13.8z m23 305.2l0.2-0.2 13.7-13.9c15.2-15.3 15.2-40.1 0-55.4l-13.7-13.9-0.2-0.2-233.1-235.4c-15.2-15.3-39.8-15.3-54.9 0l-13.7 13.9c-15.2 15.3-15.2 40.1 0 55.4L560 512 354.2 719.9c-15.2 15.3-15.2 40.1 0 55.4l13.7 13.9c15.2 15.3 39.8 15.3 54.9 0l233.1-235.4z m-264.8-14.1c15.2-15.3 15.2-40.1 0-55.4L144 234.8a38.57 38.57 0 0 0-54.9 0l-13.7 13.9c-15.1 15.3-15.1 40.1 0 55.4L281.3 512l-206 207.9c-15.1 15.3-15.1 40.1 0 55.4L89 789.2c15.2 15.3 39.8 15.3 54.9 0l247.2-249.5z" fill="#45494c" p-id="1491"></path></svg>
